<svg width="37" height="37" viewBox="0 0 37 37" fill="none" xmlns="http://www.w3.org/2000/svg">
<path fill-rule="evenodd" clip-rule="evenodd" d="M8.09375 5.78125C8.09375 5.14267 8.61142 4.625 9.25 4.625H27.75C28.3886 4.625 28.9062 5.14267 28.9062 5.78125V11.5625C28.9062 12.2011 28.3886 12.7188 27.75 12.7188C27.1114 12.7188 26.5938 12.2011 26.5938 11.5625V6.9375H10.4062V11.5625C10.4062 12.2011 9.88858 12.7188 9.25 12.7188C8.61142 12.7188 8.09375 12.2011 8.09375 11.5625V5.78125Z" fill="white"/>
<path fill-rule="evenodd" clip-rule="evenodd" d="M8.09375 21.9688C8.09375 21.3302 8.61142 20.8125 9.25 20.8125H27.75C28.3886 20.8125 28.9062 21.3302 28.9062 21.9688V31.7969C28.9062 32.4355 28.3886 32.9531 27.75 32.9531H9.25C8.61142 32.9531 8.09375 32.4355 8.09375 31.7969V21.9688ZM10.4062 23.125V30.6406H26.5938V23.125H10.4062Z" fill="white"/>
<path fill-rule="evenodd" clip-rule="evenodd" d="M6.54727 12.7188C5.72541 12.7188 5.20312 13.3257 5.20312 13.875V24.2812H9.25C9.88858 24.2812 10.4062 24.7989 10.4062 25.4375C10.4062 26.0761 9.88858 26.5938 9.25 26.5938H4.04688C3.4083 26.5938 2.89062 26.0761 2.89062 25.4375V13.875C2.89062 11.8805 4.62302 10.4062 6.54727 10.4062H30.4527C32.377 10.4062 34.1094 11.8805 34.1094 13.875V25.4375C34.1094 26.0761 33.5917 26.5938 32.9531 26.5938H27.75C27.1114 26.5938 26.5938 26.0761 26.5938 25.4375C26.5938 24.7989 27.1114 24.2812 27.75 24.2812H31.7969V13.875C31.7969 13.3257 31.2746 12.7188 30.4527 12.7188H6.54727Z" fill="white"/>
<path d="M27.1719 18.5C28.1297 18.5 28.9062 17.7235 28.9062 16.7656C28.9062 15.8078 28.1297 15.0312 27.1719 15.0312C26.214 15.0312 25.4375 15.8078 25.4375 16.7656C25.4375 17.7235 26.214 18.5 27.1719 18.5Z" fill="white"/>
</svg>
