<svg width="37" height="37" viewBox="0 0 37 37" fill="none" xmlns="http://www.w3.org/2000/svg">
<path fill-rule="evenodd" clip-rule="evenodd" d="M4.625 8.09375C4.625 7.45517 5.14267 6.9375 5.78125 6.9375H31.2188C31.8573 6.9375 32.375 7.45517 32.375 8.09375C32.375 8.73233 31.8573 9.25 31.2188 9.25H5.78125C5.14267 9.25 4.625 8.73233 4.625 8.09375Z" fill="white"/>
<path fill-rule="evenodd" clip-rule="evenodd" d="M15.0312 13.875C15.6698 13.875 16.1875 14.3927 16.1875 15.0312V24.2812C16.1875 24.9198 15.6698 25.4375 15.0312 25.4375C14.3927 25.4375 13.875 24.9198 13.875 24.2812V15.0312C13.875 14.3927 14.3927 13.875 15.0312 13.875Z" fill="white"/>
<path fill-rule="evenodd" clip-rule="evenodd" d="M21.9688 13.875C22.6073 13.875 23.125 14.3927 23.125 15.0312V24.2812C23.125 24.9198 22.6073 25.4375 21.9688 25.4375C21.3302 25.4375 20.8125 24.9198 20.8125 24.2812V15.0312C20.8125 14.3927 21.3302 13.875 21.9688 13.875Z" fill="white"/>
<path fill-rule="evenodd" clip-rule="evenodd" d="M8.09375 6.9375C8.73233 6.9375 9.25 7.45517 9.25 8.09375V30.0625H27.75V8.09375C27.75 7.45517 28.2677 6.9375 28.9062 6.9375C29.5448 6.9375 30.0625 7.45517 30.0625 8.09375V30.0625C30.0625 30.6758 29.8189 31.264 29.3852 31.6977C28.9515 32.1314 28.3633 32.375 27.75 32.375H9.25C8.63669 32.375 8.0485 32.1314 7.61482 31.6977C7.18114 31.264 6.9375 30.6758 6.9375 30.0625V8.09375C6.9375 7.45517 7.45517 6.9375 8.09375 6.9375Z" fill="white"/>
<path fill-rule="evenodd" clip-rule="evenodd" d="M12.5785 3.32847C13.229 2.67796 14.1113 2.3125 15.0312 2.3125H21.9688C22.8887 2.3125 23.771 2.67796 24.4215 3.32847C25.072 3.97899 25.4375 4.86128 25.4375 5.78125V8.09375C25.4375 8.73233 24.9198 9.25 24.2812 9.25C23.6427 9.25 23.125 8.73233 23.125 8.09375V5.78125C23.125 5.47459 23.0032 5.1805 22.7863 4.96366C22.5695 4.74682 22.2754 4.625 21.9688 4.625H15.0312C14.7246 4.625 14.4305 4.74682 14.2137 4.96366C13.9968 5.1805 13.875 5.47459 13.875 5.78125V8.09375C13.875 8.73233 13.3573 9.25 12.7188 9.25C12.0802 9.25 11.5625 8.73233 11.5625 8.09375V5.78125C11.5625 4.86128 11.928 3.97899 12.5785 3.32847Z" fill="white"/>
</svg>
