<svg width="37" height="37" viewBox="0 0 37 37" fill="none" xmlns="http://www.w3.org/2000/svg">
<path fill-rule="evenodd" clip-rule="evenodd" d="M17.3438 23.125C17.9823 23.125 18.5 23.6427 18.5 24.2812V30.0625H21.3906C22.0292 30.0625 22.5469 30.5802 22.5469 31.2188C22.5469 31.8573 22.0292 32.375 21.3906 32.375H17.3438C16.7052 32.375 16.1875 31.8573 16.1875 31.2188V24.2812C16.1875 23.6427 16.7052 23.125 17.3438 23.125Z" fill="#E6E6E6"/>
<path fill-rule="evenodd" clip-rule="evenodd" d="M6.82194 23.3563C7.33281 22.9732 8.05755 23.0767 8.44069 23.5876L13.6438 30.5251C14.027 31.0359 13.9234 31.7607 13.4126 32.1438C12.9017 32.527 12.177 32.4234 11.7938 31.9126L6.59069 24.9751C6.20755 24.4642 6.31108 23.7395 6.82194 23.3563Z" fill="#E6E6E6"/>
<path fill-rule="evenodd" clip-rule="evenodd" d="M13.4126 23.3563C13.9234 23.7395 14.027 24.4642 13.6438 24.9751L8.44069 31.9126C8.05755 32.4234 7.33281 32.527 6.82194 32.1438C6.31108 31.7607 6.20755 31.0359 6.59069 30.5251L11.7938 23.5876C12.177 23.0767 12.9017 22.9732 13.4126 23.3563Z" fill="#E6E6E6"/>
<path fill-rule="evenodd" clip-rule="evenodd" d="M26.7862 25.5205C26.6829 25.6091 26.5938 25.7481 26.5938 26.0156C26.5938 26.0293 26.5944 26.0385 26.5951 26.0443C26.6078 26.0579 26.6449 26.0926 26.7311 26.1415C27.0058 26.2975 27.4155 26.4106 28.0469 26.5783C28.0586 26.5814 28.0704 26.5845 28.0823 26.5877C28.6183 26.73 29.3511 26.9245 29.9416 27.2843C30.6294 27.7034 31.2188 28.4075 31.2188 29.4844C31.2188 30.5744 30.7509 31.424 29.9451 31.9397C29.2232 32.4018 28.3492 32.5195 27.6055 32.5195L27.6025 32.5195C26.5729 32.5168 25.5715 32.183 24.7463 31.5675C24.2344 31.1857 24.1289 30.4612 24.5107 29.9493C24.8925 29.4374 25.617 29.332 26.1289 29.7138C26.556 30.0324 27.0743 30.2053 27.6072 30.207C28.1633 30.2068 28.5174 30.1079 28.6986 29.9919C28.774 29.9436 28.8131 29.8971 28.839 29.848C28.8663 29.7963 28.9063 29.6892 28.9063 29.4844C28.9063 29.4798 28.9064 29.4754 28.9064 29.4711C28.907 29.4006 28.9073 29.3621 28.7382 29.259C28.4746 29.0984 28.0707 28.9773 27.4532 28.8133C27.42 28.8045 27.386 28.7955 27.3511 28.7863C26.8346 28.6499 26.1444 28.4676 25.5894 28.1525C25.2731 27.973 24.9381 27.7184 24.6829 27.3464C24.4175 26.9596 24.2813 26.5078 24.2813 26.0156C24.2813 25.1269 24.6259 24.3265 25.2813 23.7647C25.9178 23.2191 26.7489 22.9805 27.6055 22.9805H27.6086C28.6382 22.9832 29.6395 23.317 30.4648 23.9325C30.9767 24.3143 31.0821 25.0388 30.7003 25.5507C30.3185 26.0626 29.5941 26.168 29.0822 25.7862C28.6551 25.4676 28.1369 25.2947 27.604 25.293C27.1608 25.2932 26.9084 25.4157 26.7862 25.5205ZM26.5966 26.0526C26.5965 26.0527 26.5963 26.052 26.596 26.0502Z" fill="#E6E6E6"/>
<path fill-rule="evenodd" clip-rule="evenodd" d="M6.45857 4.14607C6.89224 3.71239 7.48044 3.46875 8.09375 3.46875H21.9688C22.2754 3.46875 22.5695 3.59057 22.7863 3.80741L30.8801 11.9012C31.0969 12.118 31.2188 12.4121 31.2188 12.7188V18.5C31.2188 19.1386 30.7011 19.6562 30.0625 19.6562C29.4239 19.6562 28.9062 19.1386 28.9062 18.5V13.1977L21.4898 5.78125L8.09375 5.78125L8.09375 18.5C8.09375 19.1386 7.57608 19.6562 6.9375 19.6562C6.29892 19.6562 5.78125 19.1386 5.78125 18.5V5.78125C5.78125 5.16794 6.02489 4.57974 6.45857 4.14607Z" fill="#E6E6E6"/>
<path fill-rule="evenodd" clip-rule="evenodd" d="M21.9688 3.46875C22.6073 3.46875 23.125 3.98642 23.125 4.625V11.5625H30.0625C30.7011 11.5625 31.2188 12.0802 31.2188 12.7188C31.2188 13.3573 30.7011 13.875 30.0625 13.875H21.9688C21.3302 13.875 20.8125 13.3573 20.8125 12.7188V4.625C20.8125 3.98642 21.3302 3.46875 21.9688 3.46875Z" fill="#E6E6E6"/>
</svg>
